<svg viewBox="0 0 810 763" xmlns="http://www.w3.org/2000/svg" fill-rule="evenodd" clip-rule="evenodd" stroke-linejoin="round" stroke-miterlimit="1.414"><path d="M608.362 160.673c73.806 53.643 162.492 23.67 191.226 119.055 35.359 117.374-30.99 134.082-83.012 194.297-83.418 96.557-.096 107.661-50.865 197.394-31.043 54.867-82.876 85.623-135.04 90.617-51.979 4.995-111.172-36.995-198.296-37.92-87.125-.925-201.996 39.03-268.773 10.358-66.592-28.486-85.09-125.97-35.331-194.781C78.215 470.88 196.416 430.74 240.996 366.738c44.58-63.817 15.538-151.497 34.96-229.927C295.194 58.38 362.896-10.802 422.83 1.407c59.748 12.208 111.727 105.807 185.533 159.266z" fill="#ffb4bc" fill-rule="nonzero"/></svg>